<?xml version="1.0" encoding="UTF-8"?>
<svg version="1.1" xmlns="http://www.w3.org/2000/svg" width="32" height="32">
<path d="M0 0 C4.83858548 2.32968931 7.67031069 5.16141452 10 10 C10.7971639 14.99447589 10.57907893 18.79729761 8.375 23.375 C5.13226355 26.95907713 2.53524104 29.59535241 -2.3984375 30.3828125 C-8.08222994 30.63883919 -11.64938655 29.93626932 -16 26 C-19.93626932 21.64938655 -20.63883919 18.08222994 -20.3828125 12.3984375 C-19.59535241 7.46475896 -16.95907713 4.86773645 -13.375 1.625 C-8.79729761 -0.57907893 -4.99447589 -0.7971639 0 0 Z " fill="#D1433D" transform="translate(21,1)"/>
<path d="M0 0 C1.11375 0.185625 1.11375 0.185625 2.25 0.375 C2.58 1.365 2.91 2.355 3.25 3.375 C1.6 3.045 -0.05 2.715 -1.75 2.375 C-1.75 3.365 -1.75 4.355 -1.75 5.375 C-0.986875 5.478125 -0.22375 5.58125 0.5625 5.6875 C3.25 6.375 3.25 6.375 6.25 9.375 C5.92 6.405 5.59 3.435 5.25 0.375 C5.91 0.375 6.57 0.375 7.25 0.375 C8.50664978 3.28100261 9.25 5.17104584 9.25 8.375 C9.91 8.375 10.57 8.375 11.25 8.375 C11.58 6.065 11.91 3.755 12.25 1.375 C13.24 1.045 14.23 0.715 15.25 0.375 C14.26 4.335 13.27 8.295 12.25 12.375 C12.91 12.375 13.57 12.375 14.25 12.375 C14.25 11.385 14.25 10.395 14.25 9.375 C15.24 9.705 16.23 10.035 17.25 10.375 C17.58 12.355 17.91 14.335 18.25 16.375 C13.04627651 20.62014285 10.45729686 21.73881941 3.7890625 21.65234375 C-1.25573015 21.10129717 -3.84986364 18.36988756 -7.125 14.75 C-9.3137327 10.20417054 -9.10261421 6.33118861 -8.75 1.375 C-8.42 1.375 -8.09 1.375 -7.75 1.375 C-7.42 3.025 -7.09 4.675 -6.75 6.375 C-6.193125 5.385 -5.63625 4.395 -5.0625 3.375 C-2.75 0.375 -2.75 0.375 0 0 Z " fill="#D34944" transform="translate(9.75,9.625)"/>
<path d="M0 0 C1.2065625 0.0309375 1.2065625 0.0309375 2.4375 0.0625 C2.7675 1.0525 3.0975 2.0425 3.4375 3.0625 C1.7875 2.7325 0.1375 2.4025 -1.5625 2.0625 C-1.5625 3.0525 -1.5625 4.0425 -1.5625 5.0625 C0.0875 5.3925 1.7375 5.7225 3.4375 6.0625 C4.5625 9.8125 4.5625 9.8125 3.4375 12.0625 C1.1275 12.0625 -1.1825 12.0625 -3.5625 12.0625 C-3.8925 11.0725 -4.2225 10.0825 -4.5625 9.0625 C-1.5925 9.5575 -1.5925 9.5575 1.4375 10.0625 C0.06058038 7.30866077 -1.92970042 6.54766899 -4.5625 5.0625 C-3.43829114 0.08386076 -3.43829114 0.08386076 0 0 Z " fill="#F8E5E5" transform="translate(9.5625,9.9375)"/>
<path d="M0 0 C0.66 0 1.32 0 2 0 C3.25664978 2.90600261 4 4.79604584 4 8 C4.66 8 5.32 8 6 8 C6.33 5.69 6.66 3.38 7 1 C7.99 0.67 8.98 0.34 10 0 C9.01 3.63 8.02 7.26 7 11 C5.68 11.33 4.36 11.66 3 12 C2.49166409 10.75336669 1.99368855 9.50250613 1.5 8.25 C1.2215625 7.55390625 0.943125 6.8578125 0.65625 6.140625 C0 4 0 4 0 0 Z " fill="#FAEDED" transform="translate(15,10)"/>
<path d="M0 0 C0.33 0 0.66 0 1 0 C1.33 3.96 1.66 7.92 2 12 C0 10 0 10 -0.1953125 7.6171875 C-0.17210938 6.71226563 -0.14890625 5.80734375 -0.125 4.875 C-0.10695312 3.96492187 -0.08890625 3.05484375 -0.0703125 2.1171875 C-0.04710938 1.41851562 -0.02390625 0.71984375 0 0 Z M3 4 C5.9375 4.8125 5.9375 4.8125 9 6 C9.33 6.99 9.66 7.98 10 9 C7.36 8.67 4.72 8.34 2 8 C2.33 6.68 2.66 5.36 3 4 Z " fill="#D75852" transform="translate(1,11)"/>
<path d="M0 0 C2.31 0 4.62 0 7 0 C8.42944945 2.35438733 9.08661261 3.48032433 8.625 6.25 C8.41875 6.8275 8.2125 7.405 8 8 C7.34 8 6.68 8 6 8 C5.7525 7.360625 5.505 6.72125 5.25 6.0625 C4.18437567 3.81258459 4.18437567 3.81258459 1.875 3.25 C0.946875 3.12625 0.946875 3.12625 0 3 C0 2.01 0 1.02 0 0 Z " fill="#CD2D26" transform="translate(8,12)"/>
<path d="M0 0 C1.2065625 0.0309375 1.2065625 0.0309375 2.4375 0.0625 C2.7675 1.0525 3.0975 2.0425 3.4375 3.0625 C1.7875 2.7325 0.1375 2.4025 -1.5625 2.0625 C-1.5625 3.3825 -1.5625 4.7025 -1.5625 6.0625 C-2.5525 5.7325 -3.5425 5.4025 -4.5625 5.0625 C-3.43829114 0.08386076 -3.43829114 0.08386076 0 0 Z " fill="#F6DEDD" transform="translate(9.5625,9.9375)"/>
<path d="M0 0 C0.66 0 1.32 0 2 0 C3.25664978 2.90600261 4 4.79604584 4 8 C4.66 8.33 5.32 8.66 6 9 C4.68 9 3.36 9 2 9 C0.50178941 5.62902617 0 3.79557881 0 0 Z " fill="#F7E2E2" transform="translate(15,10)"/>
<path d="M0 0 C2.31 0 4.62 0 7 0 C7 0.66 7 1.32 7 2 C6.34 2 5.68 2 5 2 C4.67 2.66 4.34 3.32 4 4 C2.68 3.67 1.36 3.34 0 3 C0 2.01 0 1.02 0 0 Z " fill="#CF3831" transform="translate(8,12)"/>
</svg>
